<?xml version="1.0" encoding="UTF-8" standalone="no"?>
<svg width="90px" height="69px" viewBox="0 0 90 69" version="1.1" xmlns="http://www.w3.org/2000/svg" xmlns:xlink="http://www.w3.org/1999/xlink">
    <!-- Generator: Sketch 3.8.3 (29802) - http://www.bohemiancoding.com/sketch -->
    <title>icon-code</title>
    <desc>Created with Sketch.</desc>
    <defs></defs>
    <g id="Page-1" stroke="none" stroke-width="1" fill="none" fill-rule="evenodd">
        <g id="noun_355831_cc" fill="#000000">
            <path d="M30.6655731,5.5674229 C30.1293373,4.8033028 29.3543091,4.2451916 28.5509682,3.7910061 C28.0238533,3.4930096 27.3733483,3.3523636 26.7815571,3.1480713 C26.6733685,2.8768387 26.4728451,2.6352177 26.2441292,2.495615 C25.4694004,2.0227718 24.6990242,2.2732315 24.1981354,2.9797974 C24.0606194,3.1738072 23.9968376,3.3673401 23.9863472,3.5555382 C22.4864235,4.2991677 21.1252689,6.1009312 20.1689739,7.076107 C18.0454292,9.2415561 16.0270347,11.5082493 13.9978504,13.7613373 C9.9423428,18.2643242 5.81602,22.7815857 0.87533,26.3374901 C0.327292,26.7319031 0.0897527,27.3844338 0.4373884,28.00774 C5.0452261,36.2693405 8.6332264,45.038002 11.1448803,54.1580505 C11.2794151,54.6465072 11.7878151,55.1019897 12.3220825,55.054306 C14.54422,54.855896 16.7503815,54.9306793 18.9459324,55.3364029 C19.2107716,55.3853378 19.4843731,55.3514938 19.7272778,55.253891 C20.0390873,55.5101318 20.3393937,55.7805252 20.6327858,56.0669479 C21.5481911,56.9607849 22.9058876,56.0475158 22.6731777,54.8791885 C21.0681648,46.8216858 19.6150341,38.7350959 18.3104477,30.6236496 C18.3162308,30.5960503 18.3227272,30.5692291 18.3270798,30.540081 C18.3882962,30.1275139 18.3880577,29.7698364 18.2867241,29.440979 C20.9664135,24.9487343 23.8723755,20.5992699 27.0027619,16.4074669 C28.6191598,14.2429428 30.853695,12.1299629 31.9184762,9.6241512 C32.6088028,7.9996033 32.0985527,6.1390495 30.6655731,5.5674229 L30.6655731,5.5674229 Z M15.873127,30.7574997 C16.9165096,37.2775726 18.057293,43.781353 19.2948189,50.2671509 C17.9378968,46.0681076 16.5810337,41.8690453 15.2241116,37.670002 C14.414095,35.1635475 13.6041966,32.6570664 12.7943001,30.1506157 C13.8257618,30.3258171 14.8514996,30.528904 15.873127,30.7574997 L15.873127,30.7574997 Z M22.7649746,18.0914917 C20.4021015,21.4012375 18.1927223,24.8191032 16.113884,28.3138161 C15.1767826,28.1107903 14.236105,27.9287758 13.2905388,27.7706642 C13.7768822,27.2712364 14.2632866,26.7718239 14.74963,26.2723961 C15.7695866,25.2250176 16.7895432,24.1776581 17.8094998,23.1302796 C19.4924794,21.4021187 21.179453,19.6775933 22.8654729,17.9521409 C22.8321514,17.9987259 22.7982349,18.0448761 22.7649746,18.0914917 L22.7649746,18.0914917 Z M28.2343292,8.9229946 C24.1198101,13.451374 19.6721401,17.7183876 15.4031143,22.1020813 L12.3431854,25.2442131 C11.4948406,26.1153564 10.1048946,27.1243629 9.9863338,28.4354172 C9.8680706,29.7434883 10.5338954,31.0904122 10.929634,32.315033 C11.4270648,33.854538 11.9245547,35.3940239 12.4220466,36.9335289 C14.1178417,42.1813927 15.8136958,47.429245 17.5094928,52.677124 C16.0874767,52.5205841 14.6615886,52.4718628 13.2268771,52.5484314 C10.7754868,43.9278107 7.3650006,35.5995522 3.0704039,27.7332611 C7.1092213,24.6775932 10.6476868,21.0659141 14.0594843,17.327507 C15.9186667,15.290348 17.7455404,13.2240295 19.6187895,11.1996422 C20.5542219,10.1887303 21.5062845,9.1935272 22.4747999,8.2142525 C22.7444685,7.9415303 24.984905,5.5256672 25.1673658,5.626091 C25.6441724,5.8885307 26.1030367,5.8084488 26.4428022,5.5601501 C27.1293104,5.8240661 27.8438375,6.1646366 28.3129537,6.6031608 C28.3592069,6.9520473 28.5443532,7.300682 28.8351819,7.5321254 C28.8783951,7.9365673 28.7119713,8.3973541 28.2343292,8.9229946 L28.2343292,8.9229946 Z" id="Shape"></path>
            <path d="M68.0252914,5.1311798 C67.3976745,4.6999435 66.7700576,4.2687073 66.1423797,3.837471 C66.0493926,3.2897453 65.5494003,2.8490467 64.9326324,2.7931347 C60.7109985,2.4104042 56.5284652,1.7604504 52.3871803,0.8562832 C51.1472091,0.5855579 50.4839477,2.0695496 51.0857544,2.8267975 C48.8071671,7.8995648 46.0629234,12.736269 43.319809,17.5681305 C40.5352707,22.4729195 37.8478318,27.4254417 35.3354035,32.4757385 C30.3377877,42.5214424 25.9908543,52.8937149 22.2814313,63.4819107 C22.0603448,64.1130295 22.5268975,64.8126526 23.1340676,64.9836121 C24.6354218,65.4063645 26.132721,65.8506089 27.6419411,66.2442322 C27.8253556,66.2920685 28.0073433,66.3235855 28.1874161,66.342247 C28.1942139,66.533577 28.2573967,66.7364044 28.3930664,66.9415741 C29.7938614,69.0597992 32.4130478,68.5513916 34.0025597,66.958458 C34.9354325,66.0235367 35.624981,64.7712555 36.3408165,63.6729584 C37.2573509,62.2666626 38.137825,60.8365708 39.023304,59.4105988 C42.5580177,53.7179795 46.0010491,47.9685364 49.362896,42.172184 C56.086586,30.5792999 62.4490509,18.7775383 68.4632264,6.8014336 C68.7789764,6.172699 68.6002655,5.526247 68.0252914,5.1311798 L68.0252914,5.1311798 Z M25.0339622,63.0084305 C28.6397247,52.8606644 32.8497962,42.9419937 37.6470718,33.2990341 C42.6016502,23.3398056 48.7770652,13.9806061 53.3058014,3.8158188 C53.3444901,3.7288952 53.3727417,3.6426716 53.3920555,3.5576706 C56.5483131,4.1938839 59.7307968,4.6830292 62.9314041,5.0326309 C56.97612,15.3121643 51.0208397,25.591671 45.0654984,35.8712044 C41.8893319,41.3537331 38.7131043,46.8362656 35.5368767,52.3187943 L30.8947067,60.3317032 C30.4874611,61.0346069 30.0802765,61.7374954 29.6730957,62.4403763 C29.3733826,62.9577179 29.0562668,64.0203247 28.2910156,63.8899002 C27.2032852,63.7045364 26.1111431,63.3485107 25.0339622,63.0084305 L25.0339622,63.0084305 Z M49.3528214,37.2929344 C46.3405762,42.5713501 43.2507821,47.8054046 40.0956574,52.9996261 C38.5637856,55.5214691 37.0137902,58.0324096 35.4471093,60.5327834 C35.030983,61.1968612 31.5734635,67.3305663 30.5012933,65.7092818 C30.483349,65.6821288 30.4640962,65.6577224 30.4450799,65.6327285 C30.5575601,65.5309753 30.6649171,65.4188995 30.7659532,65.2954787 C31.6678239,64.1941603 32.2912103,62.792488 33.0029298,61.5640181 L35.690487,56.9249419 C39.029564,51.1612624 42.368702,45.3975753 45.7077752,39.6338996 C52.1834985,28.4559974 58.659279,17.2781066 65.1350022,6.1002158 C65.3702164,6.261814 65.6054307,6.4234408 65.8406449,6.585039 C60.6084671,16.9604073 55.1122894,27.2005844 49.3528214,37.2929344 L49.3528214,37.2929344 Z" id="Shape"></path>
            <path d="M89.0749283,43.7201805 C88.4411163,41.8291817 87.8353806,39.9317627 87.2810211,38.015789 C86.2153473,34.3329696 85.3475647,30.5942917 84.6387634,26.827095 C84.2984619,25.0186271 84.0101928,23.2007065 83.7534027,21.3786468 C83.5078201,19.6358222 83.510086,17.7854766 82.7431641,16.1736373 C82.1180497,14.8597831 80.4800187,14.2318992 79.2393875,13.7080192 C77.4867859,12.9679374 75.6697464,12.4593448 73.7938156,12.1493358 C71.5998764,11.7867832 67.2327957,11.2419338 67.0986175,14.5497169 C67.0942687,14.6577262 67.1026687,14.7575836 67.1202545,14.8507232 C67.0418701,15.0151214 66.9971618,15.1923827 67.0064621,15.3655891 C67.2388763,19.698143 67.8162384,24.0017242 68.7293777,28.2432556 C69.2060089,30.4569244 69.7987518,32.6444282 70.4673767,34.8073463 C71.1286163,36.9464912 72.0339432,39.0002784 72.7078171,41.1299057 C72.952446,41.9031258 71.5508805,43.2524796 71.1416092,43.8093681 C70.5038605,44.6770706 69.8584213,45.5390854 69.2099457,46.398796 C67.7903748,48.2808074 66.3383713,50.1379928 64.8659287,51.9789199 C61.9832764,55.5830917 58.995411,59.1025542 55.9251671,62.5480727 C55.3392182,63.2056426 55.5250168,64.3606108 56.4638481,64.5884703 C58.7933388,65.1538695 61.1228866,65.7192686 63.4523773,66.2846526 C63.8584289,66.3831939 64.3508529,66.2986449 64.6401367,65.9707106 C64.6902084,65.9139632 64.7414703,65.8583144 64.7915954,65.8015974 C67.1236495,66.8720167 69.675003,65.5531843 71.5957031,63.8622282 C74.5950699,61.2215803 77.4705734,58.4252241 80.4019928,55.7091749 C81.8331833,54.383148 83.2643814,53.0571134 84.6955719,51.7310865 C86.0271606,50.4973142 87.6893387,49.3075178 88.7289047,47.8039243 C89.6319733,46.4978104 89.5630646,45.1766052 89.0749283,43.7201805 L89.0749283,43.7201805 Z M66.8806915,53.3449478 C68.2909012,51.5817947 69.6736374,49.7966461 71.0396194,47.9990387 C71.7841873,47.0191574 72.5192108,46.0320129 73.2498321,45.0416641 C73.8496093,44.228611 74.7787857,43.2967987 75.0352783,42.2908211 C75.5392685,40.3141518 74.1658935,38.1402207 73.5283203,36.3092194 C72.7341003,34.0281754 72.0678024,31.7039757 71.4907913,29.35915 C70.4267883,25.035019 69.783493,20.6211472 69.5005951,16.1795388 C69.7275772,16.0468674 69.9397278,15.8847047 70.1444779,15.693554 C70.3897095,15.844452 70.7036667,15.896103 71.069481,15.7788697 C73.3989717,15.0322152 74.8684388,17.3941193 75.4804307,19.2753106 C76.2705995,21.704258 76.6541825,24.3041154 77.2586061,26.785595 C78.4946443,31.8599702 79.9344255,36.8838425 81.5405656,41.8530999 C81.8958894,42.9525758 82.5025865,43.9881211 81.5874177,44.9379922 C80.7542726,45.8026734 79.8386918,46.5998536 78.9738389,47.4333268 C77.075966,49.2622605 75.2079011,51.1218873 73.3611833,53.0023652 C70.0646669,56.3592301 66.8628084,59.8081819 63.7368318,63.3242188 C63.6114122,63.4242402 63.503647,63.5437546 63.4213869,63.6760865 C63.3996889,63.700615 63.3775103,63.7247849 63.3557588,63.7493287 C61.915619,63.399788 60.4754259,63.0502625 59.0352861,62.7007218 C61.7195663,59.6406403 64.3379211,56.5241394 66.8806915,53.3449478 L66.8806915,53.3449478 Z M86.3438034,46.8593445 C84.2070236,49.1558151 81.6924515,51.1875 79.3911514,53.3197174 C77.005867,55.5297699 74.6205215,57.7398376 72.2351837,59.9498825 C71.0636368,61.0353851 68.6183319,63.9794311 66.5553512,63.8321152 C69.8556823,60.1634903 73.241722,56.5736008 76.7224273,53.0748368 C78.8000182,50.9864884 80.9147414,48.9352799 83.0556335,46.9119492 C83.7955474,46.2126389 84.5159149,45.3573685 84.5569229,44.2855797 C84.6096191,42.906765 84.0178299,41.5906449 83.6039047,40.3001862 C81.7670212,34.5734559 80.1928863,28.763649 78.8481216,22.9023247 C78.2726059,20.3939476 77.9383773,17.5802765 76.2878875,15.4998131 C76.1954955,15.3833809 76.0986938,15.2707062 75.9988479,15.1609688 C76.2975463,15.2353897 76.5182723,15.2946091 76.62014,15.3262329 C77.8746566,15.715683 79.4030151,16.1945763 80.4006805,17.08852 C81.2965927,17.8913421 81.1476287,20.1546516 81.2930145,21.247406 C82.0969467,27.2874794 83.3609466,33.2539978 85.0545349,39.1067543 C85.4381714,40.4325027 85.852211,41.7492638 86.2813339,43.0608978 C86.7368011,44.4529762 87.4787979,45.6395187 86.3438034,46.8593445 L86.3438034,46.8593445 Z" id="Shape"></path>
        </g>
    </g>
</svg>